<svg width="2000" height="2000" viewBox="0 0 2000 2000" fill="currentColor" xmlns="http://www.w3.org/2000/svg">
<g clip-path="url(#clip0_62_54)">
<path d="M2000 1000C2000 1197.78 1941.35 1391.12 1831.47 1555.57C1721.59 1720.02 1565.41 1848.19 1382.68 1923.88C1199.96 1999.57 998.891 2019.37 804.91 1980.79C610.929 1942.2 432.746 1846.96 292.893 1707.11C153.041 1567.25 57.7999 1389.07 19.2147 1195.09C-19.3705 1001.11 0.432836 800.043 76.1205 617.317C151.808 434.59 279.981 278.412 444.43 168.53C608.879 58.649 802.219 -2.35852e-06 1000 0V500C901.109 500 804.439 529.324 722.215 584.265C639.99 639.206 575.904 717.295 538.06 808.658C500.216 900.021 490.315 1000.55 509.607 1097.55C528.9 1194.54 576.52 1283.63 646.447 1353.55C716.373 1423.48 805.464 1471.1 902.455 1490.39C999.445 1509.69 1099.98 1499.78 1191.34 1461.94C1282.7 1424.1 1360.79 1360.01 1415.73 1277.79C1470.68 1195.56 1500 1098.89 1500 1000H2000Z" fill="currentColor"/>
<path d="M1090.4 0.00012207H1587.57V435.028H2000V909.604H1090.4V0.00012207Z" fill="currentColor"/>
</g>
<defs>
<clipPath id="clip0_62_54">
<rect width="2000" height="2000" fill="currentColor"/>
</clipPath>
</defs>
</svg>
