<svg width="28" height="28" viewBox="0 0 28 28" fill="none" xmlns="http://www.w3.org/2000/svg">
<path d="M28 14C28 16.7689 27.1789 19.4757 25.6406 21.778C24.1022 24.0803 21.9157 25.8747 19.3576 26.9343C16.7994 27.9939 13.9845 28.2712 11.2687 27.731C8.553 27.1908 6.05844 25.8574 4.10051 23.8995C2.14258 21.9416 0.809205 19.447 0.269012 16.7313C-0.271181 14.0155 0.00606599 11.2006 1.06569 8.64243C2.12532 6.08427 3.91973 3.89776 6.22202 2.35943C8.52431 0.821086 11.2311 -3.30193e-08 14 0V7C12.6155 7 11.2622 7.41054 10.111 8.17971C8.95987 8.94888 8.06266 10.0421 7.53285 11.3212C7.00303 12.6003 6.86441 14.0078 7.13451 15.3656C7.4046 16.7235 8.07129 17.9708 9.05026 18.9497C10.0292 19.9287 11.2765 20.5954 12.6344 20.8655C13.9922 21.1356 15.3997 20.997 16.6788 20.4672C17.9579 19.9373 19.0511 19.0401 19.8203 17.889C20.5895 16.7378 21 15.3845 21 14H28Z" fill="url(#paint0_linear_927_354)"/>
<path d="M15.2655 0H22.226V6.09039H28V12.7345H15.2655V0Z" fill="url(#paint1_linear_927_354)"/>
<defs>
<linearGradient id="paint0_linear_927_354" x1="14" y1="58.3333" x2="14.4855" y2="-13.7634" gradientUnits="userSpaceOnUse">
<stop stop-color="#11123F"/>
<stop offset="1" stop-color="#4B7877"/>
</linearGradient>
<linearGradient id="paint1_linear_927_354" x1="14" y1="58.3333" x2="14.4855" y2="-13.7634" gradientUnits="userSpaceOnUse">
<stop stop-color="#11123F"/>
<stop offset="1" stop-color="#4B7877"/>
</linearGradient>
</defs>
</svg>
